<svg xmlns="http://www.w3.org/2000/svg" viewBox="0 0 512 512" width="512" height="512">
  <defs>
    <!-- Gradients -->
    <linearGradient id="aiGradient" x1="0%" y1="0%" x2="100%" y2="100%">
      <stop offset="0%" stop-color="#1aa3ff"/>
      <stop offset="100%" stop-color="#0070b3"/>
    </linearGradient>
    <linearGradient id="humanGradient" x1="0%" y1="0%" x2="100%" y2="100%">
      <stop offset="0%" stop-color="#ffc91a"/>
      <stop offset="100%" stop-color="#e6b000"/>
    </linearGradient>
    <linearGradient id="centerGradient" x1="0%" y1="0%" x2="100%" y2="100%">
      <stop offset="0%" stop-color="#1aa3ff"/>
      <stop offset="50%" stop-color="#80ccff"/>
      <stop offset="100%" stop-color="#ffc91a"/>
    </linearGradient>
    
    <!-- Glow filters -->
    <filter id="glowBlue" x="-50%" y="-50%" width="200%" height="200%">
      <feGaussianBlur stdDeviation="8" result="coloredBlur"/>
      <feMerge>
        <feMergeNode in="coloredBlur"/>
        <feMergeNode in="SourceGraphic"/>
      </feMerge>
    </filter>
    <filter id="glowAmber" x="-50%" y="-50%" width="200%" height="200%">
      <feGaussianBlur stdDeviation="8" result="coloredBlur"/>
      <feMerge>
        <feMergeNode in="coloredBlur"/>
        <feMergeNode in="SourceGraphic"/>
      </feMerge>
    </filter>
  </defs>
  
  <!-- Background circle -->
  <circle cx="256" cy="256" r="240" fill="#0f172a" stroke="#1e293b" stroke-width="2"/>
  
  <!-- Outer ring - represents the decision cycle -->
  <circle cx="256" cy="256" r="200" fill="none" stroke="#334155" stroke-width="4" stroke-dasharray="20 10"/>
  
  <!-- State machine nodes - outer ring -->
  <g filter="url(#glowBlue)">
    <circle cx="256" cy="56" r="24" fill="url(#aiGradient)"/>
    <circle cx="426" cy="176" r="24" fill="url(#aiGradient)"/>
    <circle cx="426" cy="336" r="24" fill="url(#aiGradient)"/>
    <circle cx="256" cy="456" r="24" fill="url(#humanGradient)" filter="url(#glowAmber)"/>
    <circle cx="86" cy="336" r="24" fill="url(#aiGradient)"/>
    <circle cx="86" cy="176" r="24" fill="url(#aiGradient)"/>
  </g>
  
  <!-- Connection lines - forming the "dial" pattern -->
  <g stroke="#1aa3ff" stroke-width="2" opacity="0.6">
    <line x1="256" y1="80" x2="256" y2="160"/>
    <line x1="408" y1="190" x2="340" y2="210"/>
    <line x1="408" y1="322" x2="340" y2="302"/>
    <line x1="256" y1="432" x2="256" y2="352"/>
    <line x1="104" y1="322" x2="172" y2="302"/>
    <line x1="104" y1="190" x2="172" y2="210"/>
  </g>
  
  <!-- Inner hexagon - the coordination space -->
  <polygon 
    points="256,160 340,210 340,302 256,352 172,302 172,210" 
    fill="none" 
    stroke="url(#centerGradient)" 
    stroke-width="3"
  />
  
  <!-- Central "D" for DIAL - stylized -->
  <g transform="translate(256, 256)">
    <!-- The dial indicator pointing to human -->
    <g transform="rotate(180)">
      <path 
        d="M0,-100 L12,-70 L0,-80 L-12,-70 Z" 
        fill="url(#humanGradient)"
        filter="url(#glowAmber)"
      />
      <line x1="0" y1="0" x2="0" y2="-85" stroke="url(#humanGradient)" stroke-width="4"/>
    </g>
    
    <!-- Center pivot -->
    <circle r="16" fill="url(#centerGradient)"/>
    <circle r="8" fill="#0f172a"/>
  </g>
  
  <!-- Small decorative elements -->
  <g fill="#1aa3ff" opacity="0.4">
    <circle cx="176" cy="120" r="4"/>
    <circle cx="336" cy="120" r="4"/>
    <circle cx="380" cy="256" r="4"/>
    <circle cx="132" cy="256" r="4"/>
    <circle cx="176" cy="392" r="4"/>
    <circle cx="336" cy="392" r="4"/>
  </g>
</svg>
